# xmcd CD database file
#
# Track frame offsets:
#	150
#	15712
#	31150
#	47377
#	68362
#	85537
#	100837
#	119455
#	133162
#	147392
#	165682
#
# Disc length: 2422 seconds
#
# Revision: 2
# Processed by: cddbd v1.5PL3 Copyright (c) Steve Scherf et al.
# Submitted via: CDex 1.51
#
DISCID=8509740b
DTITLE=JOHNNY CRASH - Neighbourhood Threat
DYEAR=1990
DGENRE=Metal
TTITLE0=Hey Kid
TTITLE1=No Bones About It
TTITLE2=All The Way In Love
TTITLE3=Thrill Of The Kill
TTITLE4=Axe To The Wax
TTITLE5=Sink Or Swim
TTITLE6=Crack Of Dawn
TTITLE7=Freedom Road
TTITLE8=Halfway To Heaven
TTITLE9=Trigger Happy
TTITLE10=Baby's Like A Piano
EXTD=YEAR: 1990
EXTT0=
EXTT1=
EXTT2=
EXTT3=
EXTT4=
EXTT5=
EXTT6=
EXTT7=
EXTT8=
EXTT9=
EXTT10=
PLAYORDER=
